<!-- rocket-dayoff.svg — pixel rocket, nền trong suốt -->
<svg xmlns="http://www.w3.org/2000/svg"
     width="16" height="16" viewBox="0 0 16 16"
     shape-rendering="crispEdges">
  <!-- Vẽ bằng các pixel hình chữ nhật để giữ style pixel -->
  <!-- Màu trong suốt bỏ qua -->
  <!-- Outline tối -->
  <rect x="8" y="1" width="1" height="1" fill="#1b2330"/>
  <rect x="7" y="2" width="3" height="1" fill="#1b2330"/>
  <rect x="6" y="3" width="1" height="1" fill="#1b2330"/>
  <rect x="10" y="3" width="1" height="1" fill="#1b2330"/>
  <!-- Thân sáng -->
  <rect x="7" y="3" width="3" height="2" fill="#e6eef5"/>
  <rect x="6" y="5" width="5" height="1" fill="#e6eef5"/>
  <rect x="6" y="6" width="5" height="3" fill="#e6eef5"/>
  <rect x="5" y="7" width="7" height="3" fill="#e6eef5"/>
  <!-- Vòng cửa sổ -->
  <rect x="7" y="6" width="2" height="1" fill="#006064"/>
  <rect x="7" y="7" width="2" height="1" fill="#4dd0e1"/>
  <!-- Bóng thân -->
  <rect x="8" y="11" width="4" height="1" fill="#c7d1d8"/>
  <!-- Vây đỏ (trái/phải) -->
  <rect x="3" y="8" width="2" height="1" fill="#7d1717"/>
  <rect x="3" y="9" width="2" height="2" fill="#ef5350"/>
  <rect x="11" y="8" width="2" height="1" fill="#7d1717"/>
  <rect x="11" y="9" width="2" height="2" fill="#ef5350"/>
  <!-- Đế động cơ tối -->
  <rect x="5" y="13" width="6" height="1" fill="#1b2330"/>
  <!-- Lửa -->
  <rect x="6" y="14" width="4" height="1" fill="#ffa000"/>
  <rect x="7" y="15" width="2" height="1" fill="#e65100"/>
</svg>
